<?xml version="1.0"?>
<svg width="464.804" height="464.803" xmlns="http://www.w3.org/2000/svg" xmlns:svg="http://www.w3.org/2000/svg">
 <g>
  <title>Layer 1</title>
  <g id="svg_1">
   <g id="svg_2">
    <path fill="#01d277" id="svg_3" d="m369.395,194.2c-2.697,-3.803 -5.502,-7.512 -8.491,-11.07l0.092,0.016c-3.182,-15.236 -20.201,-35.209 -20.201,-35.209s0.252,8.235 0.128,15.2c-1.423,-1.212 -2.897,-2.373 -4.368,-3.535c-0.008,-0.046 -0.016,-0.088 -0.023,-0.134c-5.727,-35.253 -35.955,-56.857 -35.955,-56.857c5.113,5.118 5.851,24.85 0,16.812c-5.851,-8.037 -32.896,-43.138 -24.854,-21.244c8.043,21.896 -10.972,2.405 -10.972,2.405s-24.854,-69.627 -32.896,-46.232c-5.66,16.47 -21.431,32.539 -28.506,39.864c3.28,-7.604 5.113,-23.049 5.113,-23.049s-4.39,13.161 -27.054,28.515c-9.734,6.594 -17.717,16.21 -23.678,25.05c2.012,-8.644 1.311,-14.77 -12.245,2.002c-24.229,29.971 -31.668,42.36 -32.807,33.632c-1.258,-9.691 4.389,-22.666 4.389,-22.666c-12.419,16.894 -21.348,41.13 -25.798,54.936c0.07,0 0.142,-0.006 0.212,-0.006l3.924,0l0,0.098l0,3.45l0,195.018c30.713,42.15 80.311,69.649 136.45,69.649c56.8,0 106.925,-28.129 137.541,-71.112l0,-195.533l-0.001,0z"/>
    <path fill="#081c24" id="svg_4" d="m439.437,218.038c-6.212,-124.89 -92.84,-214.079 -210.584,-214.079c-120.033,0 -207.689,92.673 -210.837,221.382c9.235,-10.175 20.496,-18.442 33.208,-24.11c12.456,-97.773 83.324,-165.863 177.629,-165.863c93.343,0 163.681,66.728 177.19,162.917c12.451,4.361 23.756,11.125 33.394,19.753z"/>
    <path fill="#081c24" id="svg_5" d="m407.101,207.056c-9.317,-3.721 -19.336,-6.045 -29.855,-6.486l0,5.78l0,171.235l0,5.783c48.639,-2.064 87.559,-42.267 87.559,-91.397c0,-24.289 -9.538,-46.382 -25.047,-62.774c-9.062,-9.602 -20.206,-17.172 -32.657,-22.141z"/>
    <path fill="#081c24" id="svg_6" d="m87.555,383.36l0,-3.979l0,-174.836l0,-3.981c-13.395,0.567 -26.002,4.116 -37.305,9.854c-10.772,5.471 -20.302,12.99 -28.106,22.075c-13.754,16.013 -22.144,36.752 -22.144,59.462c0,49.139 38.922,89.349 87.555,91.405z"/>
   </g>
  </g>
  <g id="svg_7"/>
  <g id="svg_8"/>
  <g id="svg_9"/>
  <g id="svg_10"/>
  <g id="svg_11"/>
  <g id="svg_12"/>
  <g id="svg_13"/>
  <g id="svg_14"/>
  <g id="svg_15"/>
  <g id="svg_16"/>
  <g id="svg_17"/>
  <g id="svg_18"/>
  <g id="svg_19"/>
  <g id="svg_20"/>
  <g id="svg_21"/>
 </g>
</svg>