<svg width="400" height="400" xmlns="http://www.w3.org/2000/svg">
 <!-- Created with Method Draw - http://github.com/duopixel/Method-Draw/ -->
 <g>
  <title>background</title>
  <rect fill="rgba(0,0,0,0)" id="canvas_background" height="402" width="582" y="-1" x="-1"/>
 </g>
 <g>
  <title>Layer 1</title>
  <path transform="translate(28,32.5) scale(0.005) translate(-28,-32.5)" id="svg_1" d="m289.174691,240.996069c-23.10228,39.843433 -66.08148,66.708633 -115.485801,66.798226c-73.799305,-0.12799 -133.455663,-59.797148 -133.596453,-133.558056c0.14079,-73.799305 59.797148,-133.455663 133.596453,-133.596453c49.391522,0.089593 92.357923,26.941994 115.473002,66.785427l50.709824,29.233023l1.830264,1.049522c-16.779551,-77.434234 -85.574428,-135.465114 -168.01309,-135.490712c-95.007326,0.025598 -171.993594,77.011866 -172.006393,172.019192c0.025598,94.968929 77.011866,171.955197 172.006393,171.980795c82.451461,-0.025598 151.271937,-58.082075 168.01309,-135.529109l-1.804666,1.036723l-50.722623,29.271421zm55.215089,-66.759829l-91.513186,-52.847265l0,29.399411l-140.469541,0l0,46.857311l140.469541,0l0,29.399411l91.513186,-52.808868z" stroke-width="3" stroke="#000" fill="#01d277"/>
  <path stroke="#000" id="svg_2" d="m332.132405,275.975394c-26.283776,45.330409 -75.181794,75.895308 -131.389759,75.99724c-83.962468,-0.145616 -151.834314,-68.032018 -151.994492,-151.950794c0.160178,-83.962461 68.032024,-151.834301 151.994492,-151.994479c56.193403,0.101932 105.076859,30.652269 131.375197,75.982678l57.693253,33.258803l2.082316,1.194055c-19.090322,-88.097969 -97.359185,-154.12048 -191.150766,-154.149603c-108.09112,0.029123 -195.679439,87.617434 -195.694,195.708546c0.029123,108.047426 87.617442,195.635737 195.694,195.664861c93.806143,-0.029123 172.104129,-66.080757 191.150766,-154.193288l-2.053193,1.179493l-57.707815,33.302488zm62.818954,-75.953555l-104.11579,-60.125044l0,33.448105l-159.814097,0l0,53.310192l159.814097,0l0,33.448105l104.11579,-60.081359z" stroke-width="3" fill="#01d277"/>
 </g>
</svg>
