<svg width="400" height="400" xmlns="http://www.w3.org/2000/svg">
 <!-- Created with Method Draw - http://github.com/duopixel/Method-Draw/ -->
 <g>
  <title>background</title>
  <rect fill="#081c24" id="canvas_background" height="402" width="402" y="-1" x="-1"/>
  <g display="none" overflow="visible" y="0" x="0" height="100%" width="100%" id="canvasGrid">
   <rect fill="url(#gridpattern)" stroke-width="0" y="0" x="0" height="100%" width="100%"/>
  </g>
 </g>
 <g>
  <title>Layer 1</title>
  <path stroke="#000" transform="rotate(-0.014291292987763882 199.95555114765912,217.49198913576214) " id="svg_1" d="m277.969914,160.521054c0,0 13.765938,-56.912182 0,-76.190981c-13.782152,-19.278799 -19.278799,-32.120522 -49.58332,-41.314028s-19.262585,-7.361291 -41.297814,-6.420862c-22.035229,0.924215 -40.406028,12.841723 -40.406028,19.262585c0,0 -13.765938,0.924215 -19.262585,6.437076c-5.512861,5.512861 -14.690153,31.196307 -14.690153,37.633383s4.588646,49.58332 9.177292,58.760612l-5.464218,1.832216c-4.588646,53.231537 18.354584,59.668612 18.354584,59.668612c8.253077,49.58332 16.522368,28.472305 16.522368,41.314028s-8.269291,8.269291 -8.269291,8.269291s-7.328862,20.1868 -25.683446,27.531876c-18.354584,7.328862 -120.245225,46.794461 -128.530731,55.063752c-8.285506,8.285506 -7.345076,46.826889 -7.345076,46.826889l436.926656,0c0,0 0.956644,-38.541384 -7.328862,-46.826889c-8.30172,-8.285506 -110.192361,-47.73489 -128.546945,-55.063752c-18.354584,-7.345076 -25.683446,-27.531876 -25.683446,-27.531876s-8.269291,4.572432 -8.269291,-8.269291s8.269291,8.269291 16.538583,-41.314028c0,0 22.927016,-6.437076 18.354584,-59.668612l-5.512861,0z" stroke-width="3" fill="#01d277"/>
 </g>
</svg>
